HIERARCHY
ROOT Hips
{
	OFFSET 0.000000 0.000000 0.000000
	CHANNELS 6 Xposition Yposition Zposition Zrotation Yrotation Xrotation 
	JOINT LHipJoint
	{
		OFFSET 0.000000 0.000000 0.000000
		CHANNELS 3 Zrotation Yrotation Xrotation
		JOINT LeftUpLeg
		{
			OFFSET 1.363060 -1.794630 0.839290
			CHANNELS 3 Zrotation Yrotation Xrotation
			JOINT LeftLeg
			{
				OFFSET 2.448110 -6.726130 0.000000
				CHANNELS 3 Zrotation Yrotation Xrotation
				JOINT LeftFoot
				{
					OFFSET 2.562200 -7.039590 0.000000
					CHANNELS 3 Zrotation Yrotation Xrotation
					JOINT LeftToeBase
					{
						OFFSET 0.157640 -0.433110 2.322550
						CHANNELS 3 Zrotation Yrotation Xrotation
						End Site
						{
							OFFSET 0.000000 0.000000 0.000000
						}
					}
				}
			}
		}
	}
	JOINT RHipJoint
	{
		OFFSET 0.000000 0.000000 0.000000
		CHANNELS 3 Zrotation Yrotation Xrotation
		JOINT RightUpLeg
		{
			OFFSET -1.305520 -1.794630 0.839290
			CHANNELS 3 Zrotation Yrotation Xrotation
			JOINT RightLeg
			{
				OFFSET -2.542530 -6.985550 0.000000
				CHANNELS 3 Zrotation Yrotation Xrotation
				JOINT RightFoot
				{
					OFFSET -2.568260 -7.056230 0.000000
					CHANNELS 3 Zrotation Yrotation Xrotation
					JOINT RightToeBase
					{
						OFFSET -0.164730 -0.452590 2.363150
						CHANNELS 3 Zrotation Yrotation Xrotation
						End Site
						{
							OFFSET 0.000000 0.000000 0.000000
						}
					}
				}
			}
		}
	}
}
MOTION
Frames: 31
Frame Time: 0.008333
-5.729773 17.434755 1.174040 101.170887 -84.464680 -90.088751 -8.787718 3.522398 3.151299 -19.755306 -3.543285 0.573287 -3.416885 -0.516271 3.404302 -0.665440 -5.838974 4.076507 -0.678000 0.000000 -34.316900 10.566291 0.267539 1.984276 1.207074 -4.459436 -32.896705 1.275791 -1.073146 22.615145 -1.133314 -4.648854 -1.529913 -1.027800 0.000000 -28.165000
-5.863081 17.422328 1.146787 100.006619 -84.375947 -88.964395 -8.715783 3.575063 3.064416 -19.775663 -3.443750 1.295812 -3.432013 -0.491614 3.203864 -0.693070 -6.138068 4.481133 -0.761600 0.000000 -35.208300 10.577595 0.318690 2.030623 1.513143 -4.623872 -33.055933 1.421462 -0.882653 20.374974 -1.009491 -4.132923 -0.977875 -1.023100 0.000000 -28.681100
-5.998092 17.408835 1.119701 99.242429 -84.291729 -88.239547 -8.642483 3.627299 2.976935 -19.797230 -3.343950 2.006124 -3.443362 -0.464338 3.031110 -0.715313 -6.387031 4.884760 -0.840500 0.000000 -36.151600 10.587287 0.362020 2.082603 1.856590 -4.757013 -33.173176 1.578652 -0.681567 18.117498 -0.866595 -3.522739 -0.475853 -0.986800 -0.000000 -29.451900
-6.135263 17.394484 1.092949 98.861137 -84.215574 -87.891498 -8.570320 3.678877 2.891157 -19.817040 -3.241433 2.699575 -3.450637 -0.436012 2.878756 -0.732002 -6.580101 5.280538 -0.912300 0.000000 -37.156500 10.592536 0.397612 2.145741 2.232888 -4.843847 -33.253246 1.745203 -0.468482 15.844390 -0.708919 -2.835538 -0.027756 -0.921500 -0.000000 -30.517700
-6.274967 17.379558 1.066714 98.847869 -84.149539 -87.902394 -8.500864 3.728386 2.809260 -19.834025 -3.145721 3.383818 -3.453190 -0.408653 2.729447 -0.742280 -6.701237 5.663763 -0.972100 -0.000000 -38.208699 10.590352 0.426759 2.221519 2.638068 -4.876230 -33.296441 1.918485 -0.242525 13.558262 -0.541487 -2.092072 0.363087 -0.831400 -0.000000 -31.859000
-6.417567 17.364280 1.041102 99.162057 -84.097602 -88.227829 -8.437508 3.776230 2.733173 -19.840832 -3.051123 4.048690 -3.450560 -0.382446 2.588091 -0.746937 -6.758876 6.029553 -1.019800 -0.000000 -39.325000 10.578203 0.449667 2.314072 3.070415 -4.847081 -33.308793 2.095189 -0.002752 11.261371 -0.370819 -1.322700 0.698583 -0.724101 -0.000000 -33.447300
-6.563245 17.348885 1.016193 99.767380 -84.062266 -88.830297 -8.383222 3.822508 2.663084 -19.829560 -2.952373 4.686746 -3.442357 -0.356996 2.462520 -0.746896 -6.765209 6.373146 -1.056100 -0.000000 -40.477200 10.554068 0.467490 2.424549 3.528622 -4.754065 -33.293265 2.271712 0.251129 8.958773 -0.203564 -0.559046 0.977317 -0.607900 0.000000 -35.184400
-6.711989 17.333582 0.992103 100.657720 -84.043081 -89.708474 -8.337625 3.865160 2.600845 -19.803114 -2.876979 5.324697 -3.427097 -0.332999 2.324419 -0.740742 -6.696188 6.718087 -1.077400 0.000001 -41.724500 10.516294 0.483017 2.546743 4.009722 -4.602627 -33.242185 2.443708 0.517276 6.660600 -0.045109 0.171982 1.204831 -0.490300 -0.000000 -37.032599
-6.863971 17.318521 0.968743 101.781772 -84.041980 -90.809696 -8.304665 3.906886 2.544348 -19.748499 -2.796170 5.932402 -3.405412 -0.307217 2.216652 -0.731791 -6.602392 7.055960 -1.092400 0.000000 -43.006100 10.465052 0.496401 2.683374 4.511304 -4.392716 -33.163232 2.607248 0.794416 4.382467 0.098504 0.839553 1.374644 -0.379799 0.000000 -38.850801
-7.018769 17.303795 0.946054 103.119496 -84.056625 -92.124281 -8.283610 3.947267 2.492777 -19.667419 -2.719549 6.521597 -3.376920 -0.277945 2.137672 -0.720367 -6.487953 7.408836 -1.103900 -0.000001 -44.349500 10.401057 0.510139 2.827762 5.028569 -4.133932 -33.052539 2.758255 1.078114 2.151142 0.223790 1.426366 1.482712 -0.281700 -0.000000 -40.582100
-7.176436 17.289453 0.923904 104.643406 -84.084244 -93.626441 -8.274504 3.988000 2.444145 -19.557785 -2.637922 7.085056 -3.342115 -0.242441 2.109034 -0.708334 -6.381555 7.788832 -1.119100 0.000000 -45.737101 10.326390 0.525229 2.975725 5.555553 -3.835728 -32.912895 2.893801 1.363064 0.002450 0.328743 1.924138 1.517538 -0.199100 0.000000 -42.165600
-7.336535 17.275447 0.902122 106.319334 -84.120003 -95.291932 -8.275284 4.029995 2.396831 -19.423904 -2.549581 7.623212 -3.301655 -0.198215 2.145075 -0.696794 -6.300883 8.212997 -1.144000 0.000000 -47.173000 10.243882 0.542976 3.121077 6.085056 -3.511384 -32.748182 3.011991 1.642220 -2.017091 0.413381 2.338136 1.461774 -0.132300 0.000001 -43.572001
-7.498744 17.261722 0.880689 108.130170 -84.159209 -97.111377 -8.283547 4.073408 2.349060 -19.272183 -2.458669 8.145559 -3.255723 -0.143642 2.247709 -0.685887 -6.251393 8.703254 -1.182700 0.000001 -48.687000 10.155605 0.563869 3.255925 6.610916 -3.173604 -32.558982 3.112508 1.907800 -3.856364 0.479287 2.684819 1.293928 -0.078900 -0.000000 -44.793200
-7.662967 17.248234 0.859467 110.047809 -84.197286 -99.059034 -8.297077 4.119080 2.299437 -19.108367 -2.362406 8.651583 -3.204826 -0.077452 2.426785 -0.675890 -6.243242 9.270705 -1.239700 -0.000000 -50.287000 10.063980 0.586871 3.376053 7.124845 -2.829697 -32.349925 3.196167 2.152724 -5.466874 0.528641 2.984598 0.993242 -0.036000 0.000000 -45.833800
-7.828967 17.234832 0.838304 112.019324 -84.229295 -101.083550 -8.313291 4.167618 2.247940 -18.938870 -2.257602 9.130344 -3.149870 0.000870 2.698446 -0.666952 -6.286310 9.910619 -1.318600 0.000000 -51.928500 9.972016 0.610186 3.481633 7.613456 -2.480226 -32.129434 3.264030 2.371134 -6.808790 0.563358 3.255092 0.545083 -0.001100 0.000001 -46.705400
-7.996727 17.221406 0.817302 114.034115 -84.260958 -103.174956 -8.324761 4.219082 2.193856 -18.767190 -2.150560 9.593052 -3.090521 0.089762 3.049894 -0.657691 -6.366821 10.631495 -1.418300 -0.000000 -53.671600 9.858212 0.628606 3.565304 8.069974 -2.058283 -32.449501 3.332500 2.450964 -6.684206 0.555322 3.543351 -0.711388 0.027599 0.000000 -47.432700
-8.166278 17.207754 0.796461 116.060066 -84.284835 -105.298066 -8.335248 4.271892 2.136997 -18.599275 -2.041919 10.036985 -3.026476 0.188309 3.479221 -0.646705 -6.474963 11.424736 -1.537300 -0.000000 -55.521100 9.736975 0.637817 3.633463 8.477612 -1.591457 -32.910582 3.398000 2.463538 -5.917966 0.520755 3.830948 -2.290851 0.050400 0.000000 -48.039500
-8.337812 17.193680 0.775790 118.057463 -84.293097 -107.405915 -8.349516 4.324826 2.079129 -18.440688 -1.934779 10.454980 -2.957589 0.294821 3.984210 -0.632511 -6.597054 12.269569 -1.671100 0.000001 -57.431600 9.626549 0.639226 3.696594 8.814857 -1.107328 -33.080109 3.447241 2.491482 -5.422719 0.485850 4.087072 -3.653498 0.066101 -0.000000 -48.542400
-8.511594 17.178999 0.755423 120.008788 -84.287033 -109.474919 -8.369172 4.377281 2.021801 -18.290547 -1.832496 10.844828 -2.883371 0.406885 4.554808 -0.613763 -6.716615 13.148296 -1.813600 0.000000 -59.408000 9.526898 0.632612 3.760994 9.067735 -0.583171 -32.968274 3.477141 2.532849 -5.187318 0.454610 4.300522 -4.772403 0.074099 -0.000000 -48.956300
-8.687998 17.163511 0.735579 121.929027 -84.270384 -111.513185 -8.398312 4.429355 1.964998 -18.140336 -1.729204 11.204775 -2.802773 0.522537 5.180361 -0.589511 -6.823965 14.050088 -1.960700 0.000000 -61.509200 9.435857 0.616397 3.832252 9.230934 0.004326 -32.594153 3.486442 2.583727 -5.188643 0.430013 4.458557 -5.620694 0.074300 -0.000000 -49.298200
-8.867339 17.147109 0.716388 123.822677 -84.247591 -113.516861 -8.440668 4.481279 1.911766 -17.980999 -1.625466 11.522488 -2.715409 0.639425 5.859063 -0.559654 -6.915670 14.948214 -2.107800 0.000000 -63.658800 9.351063 0.588255 3.919043 9.301965 0.678571 -31.993851 3.475193 2.639704 -5.399532 0.413481 4.544215 -6.172020 0.067800 -0.000000 -49.564300
-9.050073 17.129831 0.698168 125.740677 -84.224616 -115.529061 -8.502613 4.534135 1.863478 -17.795279 -1.512664 11.787643 -2.620118 0.756019 6.589273 -0.524488 -6.999748 15.830010 -2.255700 -0.000001 -65.840700 9.267631 0.544855 4.027165 9.291462 1.456277 -31.205891 3.446446 2.695850 -5.788448 0.405711 4.546609 -6.402194 0.056899 -0.000000 -49.758599
-9.236334 17.111766 0.681253 127.769964 -84.208884 -117.634495 -8.593002 4.589615 1.819641 -17.557243 -1.370608 11.986071 -2.515154 0.871865 7.376761 -0.484845 -7.102829 16.694050 -2.413600 0.000000 -68.057600 9.178698 0.482779 4.159438 9.222327 2.344145 -30.270211 3.406167 2.747495 -6.322447 0.406416 4.462576 -6.290530 0.044000 0.000000 -49.885600
-9.426261 17.093175 0.666046 130.019532 -84.207366 -119.940402 -8.719562 4.650227 1.780747 -17.238599 -1.178402 12.100537 -2.398817 0.986562 8.233707 -0.441790 -7.262281 17.542234 -2.596900 -0.000000 -70.251900 9.070866 0.397372 4.314718 9.128774 3.350634 -29.358271 3.367831 2.766491 -6.698192 0.406086 4.306522 -5.974576 0.031200 0.000000 -49.945600
-9.619863 17.074424 0.652870 132.621607 -84.228430 -122.580068 -8.884876 4.718618 1.749534 -16.815172 -0.923988 12.118855 -2.269871 1.098897 9.170299 -0.396201 -7.515105 18.381250 -2.823000 0.000000 -72.296900 8.912186 0.279267 4.480789 9.064772 4.511535 -29.044304 3.359550 2.648601 -5.758666 0.370664 4.129251 -6.075090 0.019100 0.000000 -49.938800
-9.816877 17.055957 0.642143 135.760530 -84.258292 -125.741388 -9.105676 4.798746 1.722495 -16.258572 -0.567802 12.017466 -2.126587 1.210670 10.211402 -0.347378 -7.919824 19.239464 -3.123800 -0.000000 -74.175200 8.724359 0.138620 4.659661 9.061581 5.728597 -28.765049 3.363749 2.508214 -4.726482 0.348412 3.931581 -5.905306 0.007499 0.000000 -49.853900
-10.016666 17.038183 0.634067 139.600605 -84.278615 -129.594937 -9.383457 4.893735 1.701295 -15.566246 -0.106298 11.790798 -1.970320 1.321289 11.363269 -0.292967 -8.499190 20.139375 -3.518299 -0.000000 -75.735600 8.507484 -0.018500 4.841835 9.154815 6.955115 -28.530095 3.385905 2.348775 -3.609879 0.346261 3.756831 -5.470575 -0.002900 -0.000000 -49.670200
-10.218674 17.021548 0.628883 144.362725 -84.263697 -134.366648 -9.720699 5.009816 1.682328 -14.720928 0.497745 11.416619 -1.802782 1.431432 12.653997 -0.229252 -9.297917 21.113348 -4.039600 0.000001 -76.930200 8.264179 -0.183637 5.017632 9.384288 8.146446 -28.338619 3.431668 2.174989 -2.415467 0.369886 3.648381 -4.796246 -0.009900 0.000000 -49.322800
-10.421740 17.006382 0.626336 150.137228 -84.171467 -140.153598 -10.098567 5.150111 1.666330 -13.751135 1.226535 10.904434 -1.631511 1.540203 14.076383 -0.150712 -10.288554 22.181517 -4.691400 -0.000000 -77.618000 8.011252 -0.341488 5.176089 9.767217 9.257288 -28.190337 3.501735 1.989481 -1.139578 0.423196 3.649590 -3.932547 -0.007700 0.000000 -48.734400
-10.624927 16.992940 0.626247 156.974461 -83.965864 -147.009541 -10.491067 5.316968 1.646586 -12.659276 2.096432 10.244921 -1.464572 1.648047 15.650807 -0.052790 -11.460866 23.357402 -5.485100 0.000000 -77.731300 7.773977 -0.477010 5.312877 10.323095 10.264079 -28.072341 3.594009 1.795469 0.209662 0.505060 3.779676 -2.943504 0.010700 -0.000000 -47.767400
-10.827020 16.981375 0.628109 164.681716 -83.630956 -154.743967 -10.850695 5.500220 1.615258 -11.463512 3.089040 9.451326 -1.310253 1.753757 17.383761 0.065942 -12.750830 24.635634 -6.403101 -0.000000 -77.175500 7.589452 -0.580174 5.430063 11.052629 11.155337 -27.970495 3.699762 1.593168 1.613756 0.608710 4.034588 -1.909024 0.051200 0.000000 -46.256900
